HIERARCHY
ROOT Hips
{
	OFFSET 0.00000 0.00000 0.00000
	CHANNELS 6 Xposition Yposition Zposition Zrotation Yrotation Xrotation 
	JOINT LHipJoint
	{
		OFFSET 0 0 0
		CHANNELS 3 Zrotation Yrotation Xrotation
		JOINT LeftUpLeg
		{
			OFFSET 1.54859 -1.61379 0.86856
			CHANNELS 3 Zrotation Yrotation Xrotation
			JOINT LeftLeg
			{
				OFFSET 2.25087 -6.18423 0.00000
				CHANNELS 3 Zrotation Yrotation Xrotation
				JOINT LeftFoot
				{
					OFFSET 2.40328 -6.60297 0.00000
					CHANNELS 3 Zrotation Yrotation Xrotation
					JOINT LeftToeBase
					{
						OFFSET 0.17435 -0.47901 2.02453
						CHANNELS 3 Zrotation Yrotation Xrotation
						End Site
						{
							OFFSET 0.00000 -0.00000 1.04844
						}
					}
				}
			}
		}
	}
	JOINT RHipJoint
	{
		OFFSET 0 0 0
		CHANNELS 3 Zrotation Yrotation Xrotation
		JOINT RightUpLeg
		{
			OFFSET -1.54669 -1.61379 0.86856
			CHANNELS 3 Zrotation Yrotation Xrotation
			JOINT RightLeg
			{
				OFFSET -2.28132 -6.26789 0.00000
				CHANNELS 3 Zrotation Yrotation Xrotation
				JOINT RightFoot
				{
					OFFSET -2.51636 -6.91365 0.00000
					CHANNELS 3 Zrotation Yrotation Xrotation
					JOINT RightToeBase
					{
						OFFSET -0.15124 -0.41552 2.21090
						CHANNELS 3 Zrotation Yrotation Xrotation
						End Site
						{
							OFFSET -0.00000 -0.00000 1.13399
						}
					}
				}
			}
		}
	}
	JOINT LowerBack
	{
		OFFSET 0 0 0
		CHANNELS 3 Zrotation Yrotation Xrotation
		JOINT Spine
		{
			OFFSET -0.04287 2.26161 -0.25690
			CHANNELS 3 Zrotation Yrotation Xrotation
			JOINT Spine1
			{
				OFFSET 0.02248 2.28395 -0.10140
				CHANNELS 3 Zrotation Yrotation Xrotation
				JOINT Neck
				{
					OFFSET 0 0 0
					CHANNELS 3 Zrotation Yrotation Xrotation
					JOINT Neck1
					{
						OFFSET -0.11644 1.38496 0.11345
						CHANNELS 3 Zrotation Yrotation Xrotation
						JOINT Head
						{
							OFFSET 0.29383 1.36600 0.06642
							CHANNELS 3 Zrotation Yrotation Xrotation
							End Site
							{
								OFFSET 0.11075 1.41395 -0.00294
							}
						}
					}
				}
				JOINT LeftShoulder
				{
					OFFSET 0 0 0
					CHANNELS 3 Zrotation Yrotation Xrotation
					JOINT LeftArm
					{
						OFFSET 3.51628 0.59542 -0.30346
						CHANNELS 3 Zrotation Yrotation Xrotation
						JOINT LeftForeArm
						{
							OFFSET 4.76405 -0.00000 0.00000
							CHANNELS 3 Zrotation Yrotation Xrotation
							JOINT LeftHand
							{
								OFFSET 3.13759 -0.00000 -0.00000
								CHANNELS 3 Zrotation Yrotation Xrotation
								JOINT LeftFingerBase
								{
									OFFSET 0 0 0
									CHANNELS 3 Zrotation Yrotation Xrotation
									JOINT LeftHandIndex1
									{
										OFFSET 0.73226 -0.00000 -0.00000
										CHANNELS 3 Zrotation Yrotation Xrotation
										End Site
										{
											OFFSET 0.59037 -0.00000 -0.00000
										}
									}
								}
								JOINT LThumb
								{
									OFFSET 0 0 0
									CHANNELS 3 Zrotation Yrotation Xrotation
									End Site
									{
										OFFSET 0.59938 -0.00000 0.59938
									}
								}
							}
						}
					}
				}
				JOINT RightShoulder
				{
					OFFSET 0 0 0
					CHANNELS 3 Zrotation Yrotation Xrotation
					JOINT RightArm
					{
						OFFSET -3.30990 0.84213 -0.36430
						CHANNELS 3 Zrotation Yrotation Xrotation
						JOINT RightForeArm
						{
							OFFSET -5.10161 -0.00000 -0.00000
							CHANNELS 3 Zrotation Yrotation Xrotation
							JOINT RightHand
							{
								OFFSET -3.23267 -0.00000 -0.00000
								CHANNELS 3 Zrotation Yrotation Xrotation
								JOINT RightFingerBase
								{
									OFFSET 0 0 0
									CHANNELS 3 Zrotation Yrotation Xrotation
									JOINT RightHandIndex1
									{
										OFFSET -0.70200 -0.00000 -0.00000
										CHANNELS 3 Zrotation Yrotation Xrotation
										End Site
										{
											OFFSET -0.56597 -0.00000 -0.00000
										}
									}
								}
								JOINT RThumb
								{
									OFFSET 0 0 0
									CHANNELS 3 Zrotation Yrotation Xrotation
									End Site
									{
										OFFSET -0.57461 -0.00000 0.57461
									}
								}
							}
						}
					}
				}
			}
		}
	}
}
MOTION
Frames: 11
Frame Time: 0.0769231
0.00 0.00 0.00 0 0 0 0 0 0 -21 0 0 0 0 0 0 0 0 0 0 0 0 0 0 21 0 0 0 0 0 0 0 0 0 0 0 0 0 0 0 0 0 0 0 0 0 0 -16 0 0 21 0 0 11 0 0 0 -8 0 0 0 0 0 0 0 0 0 0 0 0 0 0 0 0 0 0 0 0 8 0 0 0 0 0 0 0 0 0 0 0 0 0 0 0 0 0
0.00 0.00 0.00 -176.8480 -26.6284 174.6950 0.0000 0.0000 0.0000 -7.8336 15.9751 -18.1093 7.1633 15.4679 49.4892 2.0303 1.7993 -27.6323 0.7636 -5.5805 -15.5720 0.0000 0.0000 0.0000 17.9537 -5.7667 -7.2641 -4.4320 -12.7141 38.3074 -1.7661 -8.5746 -29.4404 -1.7000 8.2110 -23.3568 1.2030 2.2811 7.6856 1.8695 2.5403 6.7483 1.1134 1.0480 2.6517 -10.2151 3.5461 -8.0344 11.6042 5.3421 -1.4953 5.2831 2.8092 0.2813 -0.0000 -0.0000 0.0000 -89.3025 6.2803 32.8178 28.1983 -39.2982 -10.2491 -0.0000 0.0000 -23.3090 21.9067 23.9628 9.2759 -7.1250 0.0000 -0.0000 -7.9827 55.3985 -2.0471 -0.0000 -0.0000 0.0000 88.5604 0.7964 23.9291 -18.0920 28.2748 -4.5927 0.0000 0.0000 3.2903 -20.7699 27.7025 -9.9992 7.1250 -0.0000 -0.0000 5.6357 -0.7875 5.5849
0.00 0.00 0.00 -177.3890 -22.7838 179.7640 0.0000 0.0000 0.0000 -10.5025 18.6740 -33.5904 12.4360 18.5689 67.3642 1.0982 0.3679 -19.9491 0.5596 -4.7915 -13.3150 0.0000 0.0000 0.0000 12.5797 -8.6623 -15.4072 -5.2038 -13.6097 41.6958 -1.8604 -5.9339 -28.4597 -4.0961 12.2871 -36.7555 2.4317 1.9444 13.2324 2.2005 2.1800 6.5339 0.6325 0.8035 -0.5374 -10.1627 5.4696 -10.2706 8.9105 8.0714 -4.6443 4.4789 4.1194 -0.5057 0.0000 -0.0000 0.0000 -88.5492 20.1134 36.1811 46.3502 -51.4130 -23.2894 -0.0000 0.0000 -33.7025 23.6701 20.9764 8.9182 -7.1250 0.0000 -0.0000 -5.1193 52.6229 -0.9624 0.0000 -0.0000 0.0000 80.6374 -2.4451 34.4819 -29.0344 40.0512 -10.7828 0.0000 -0.0000 -15.2791 -23.0213 26.1038 -10.5899 7.1250 -0.0000 -0.0000 4.0998 -2.0127 3.9636
0.00 0.00 0.00 -180.9770 -17.6090 186.8190 0.0000 0.0000 0.0000 -12.1180 16.1443 -54.3454 13.1950 18.8514 69.7301 0.8799 1.5618 -18.3502 0.5726 -4.8461 -13.4702 0.0000 0.0000 0.0000 1.6903 -8.4442 -29.1620 -7.9577 -16.0880 52.4102 -2.2634 -1.6572 -29.0844 -6.3340 14.7444 -46.3081 3.8598 1.9980 27.1799 -0.0787 1.9088 8.5719 -2.8207 0.2599 -5.2897 -5.2245 9.5754 -14.4569 -1.5415 11.2596 -18.4993 0.5000 4.9946 -3.9693 -0.0000 0.0000 0.0000 -101.8384 12.3947 13.8075 42.2116 -49.3270 -20.1009 -0.0000 0.0000 -28.7921 22.0462 19.4955 7.6969 -7.1250 0.0000 -0.0000 -6.3126 50.7783 -0.9019 -0.0000 0.0000 0.0000 78.1683 6.6777 34.1611 -33.5437 43.7438 -13.7966 0.0000 -0.0000 -20.8408 -25.9702 26.2935 -12.1758 7.1250 -0.0000 -0.0000 2.3551 -1.2086 2.3069
0.00 0.00 0.00 -180.7800 -11.2220 191.1300 0.0000 0.0000 0.0000 -0.6101 19.8662 -67.6440 10.8890 17.8804 62.4207 0.6096 2.9397 -16.1082 0.0748 -1.7641 -4.8541 0.0000 0.0000 0.0000 -9.3814 -9.1090 -38.3349 -10.0272 -17.4251 59.5792 -2.5182 -2.1023 -30.8161 -8.4458 16.4375 -54.1529 4.2505 2.6238 37.6662 -1.9707 0.6638 13.0309 -4.4137 -1.0252 -3.9666 -9.9984 12.3527 -11.7051 -2.0523 13.4352 -33.0808 0.6520 5.5923 -9.3738 -0.0000 -0.0000 0.0000 -88.8609 -2.4527 1.8412 44.7785 -50.6595 -22.0673 -0.0000 0.0000 -34.7895 19.1319 20.1773 6.8234 -7.1250 0.0000 -0.0000 -9.3913 50.9969 -1.3981 -0.0000 -0.0000 0.0000 71.9779 40.0913 33.2661 -38.0518 46.8724 -17.0034 0.0000 -0.0000 -29.0324 -31.6694 25.8611 -15.0602 7.1250 -0.0000 -0.0000 -1.1115 -0.3211 -1.1055
0.00 0.00 0.00 -177.2040 -16.8389 191.8260 0.0000 0.0000 0.0000 -1.7794 21.8975 -77.5367 15.5576 19.5201 76.9109 0.6696 1.3463 -16.0016 0.0769 -1.7888 -4.9222 0.0000 0.0000 0.0000 -12.3226 -14.1821 -22.7758 -5.4631 -13.8871 42.7871 -1.4278 -5.3325 -25.0516 -8.9636 16.7842 -55.9642 1.9670 4.5936 37.6943 -1.4702 2.2382 13.8835 -3.2441 -0.3547 -3.0227 -11.6869 8.9326 -10.1951 4.6869 10.9918 -29.7929 3.3043 4.5312 -8.7320 -0.0000 0.0000 0.0000 -62.2691 -8.6762 -7.2763 58.6952 -55.9521 -33.2577 -0.0000 0.0000 -44.4537 24.7089 19.4392 8.7064 -7.1250 0.0000 -0.0000 -3.6499 51.1749 -0.5558 -0.0000 0.0000 0.0000 56.6406 42.1159 8.0043 -60.1321 56.3450 -34.4510 0.0000 -0.0000 -33.7871 -35.8258 31.8656 -20.8626 7.1250 -0.0000 -0.0000 -2.2337 7.4709 -2.5070
0.00 0.00 0.00 -175.5160 -23.1989 193.4760 0.0000 0.0000 0.0000 -2.8827 18.9137 -80.1000 17.0173 19.7853 81.2491 0.6267 0.7022 -15.2263 0.3329 -3.7083 -10.2573 0.0000 0.0000 0.0000 -9.8930 -11.2976 -5.2703 -1.7048 -8.2219 23.3902 0.6351 -16.3766 -15.2709 -8.8684 16.7223 -55.6340 -1.3566 5.3762 35.2771 -0.2333 3.0565 12.6503 -0.4756 0.1786 -3.9002 -12.0398 6.7008 -9.0157 10.1248 9.1809 -27.7686 5.3125 3.4740 -8.2148 -0.0000 0.0000 0.0000 -50.3295 -14.1552 -9.8325 60.0860 -56.3328 -34.4127 -0.0000 0.0000 -47.5754 26.1228 18.9008 9.0261 -7.1250 0.0000 -0.0000 -2.1066 50.8421 -0.3034 -0.0000 0.0000 0.0000 52.3710 33.4940 -4.1508 -56.3168 55.2458 -31.2951 0.0000 -0.0000 -37.7934 -38.1525 32.2264 -22.7299 7.1250 -0.0000 -0.0000 -3.4113 8.6758 -3.8933
0.00 0.00 0.00 -175.4860 -28.5506 195.6550 0.0000 0.0000 0.0000 -4.4652 15.1090 -80.7447 17.7904 19.8825 83.5273 0.9239 -2.9649 -17.4086 0.3964 -4.0424 -11.1959 0.0000 0.0000 0.0000 -7.9377 -12.1498 7.5370 -0.1946 -2.8406 7.8353 2.1256 -24.8464 -7.3909 -8.7079 16.6160 -55.0743 -4.2068 5.5796 33.0206 0.4815 3.1751 11.5965 1.7556 0.3937 -4.4174 -12.6170 4.5045 -8.3159 14.6304 7.0193 -26.1608 7.0843 2.2768 -7.5841 -0.0000 -0.0000 0.0000 -41.7313 -19.4751 -11.0739 59.9964 -56.3090 -34.3381 -0.0000 0.0000 -48.2813 27.1603 18.6637 9.3239 -7.1250 0.0000 -0.0000 -1.0153 50.7656 -0.1443 -0.0000 -0.0000 0.0000 51.2511 25.6961 -11.6675 -49.9293 52.9670 -26.1177 0.0000 -0.0000 -41.6160 -37.5602 30.8442 -21.5178 7.1250 -0.0000 -0.0000 -3.4336 6.9523 -3.8305
0.00 0.00 0.00 -175.3270 -33.9567 197.4990 0.0000 0.0000 0.0000 -7.5027 12.0627 -78.3232 18.3731 19.9364 85.2384 1.6132 -5.3852 -22.8746 1.7866 -8.4067 -23.9565 0.0000 0.0000 0.0000 -5.9193 -11.6582 11.6482 -0.1544 -2.5317 6.9775 4.6078 -36.0789 -4.1817 -5.1626 13.5647 -41.5207 -5.1052 5.2545 30.8745 0.8048 2.9919 11.6851 2.8924 0.4056 -3.9995 -11.0653 2.5322 -9.8463 16.1139 4.4586 -25.1183 7.3931 0.8690 -6.5266 0.0000 -0.0000 0.0000 -30.2150 -27.6222 -14.9665 55.4186 -54.9601 -30.5585 -0.0000 0.0000 -46.3086 26.5124 18.1298 8.8235 -7.1250 0.0000 -0.0000 -1.5569 50.0712 -0.1947 0.0000 -0.0000 0.0000 52.8020 15.2668 -19.1973 -44.2038 50.3724 -21.6237 0.0000 -0.0000 -43.6016 -36.5869 29.7095 -20.1981 7.1250 -0.0000 -0.0000 -3.1622 5.3710 -3.4493
0.00 0.00 0.00 -173.1270 -37.3518 197.5210 0.0000 0.0000 0.0000 -9.3249 11.5590 -74.2190 18.5993 19.9529 85.9015 2.4294 -8.1178 -28.0756 2.4385 -9.7252 -28.0913 0.0000 0.0000 0.0000 -3.3017 -12.8053 -0.9507 -2.6944 -10.1831 29.5717 0.3484 -15.5096 6.6308 -5.7190 14.1504 -43.8432 -4.4042 4.3245 30.8286 2.1163 2.2264 11.4776 4.2150 0.0735 -4.1719 -12.4518 2.3470 -11.0685 17.2704 4.4264 -25.6041 8.1219 0.8453 -6.5158 0.0000 -0.0000 0.0000 -23.9617 -28.9938 -18.9831 53.4774 -54.3052 -28.9754 -0.0000 0.0000 -45.8465 26.5584 18.3754 8.9548 -7.1250 0.0000 -0.0000 -1.5603 50.3466 -0.2057 0.0000 -0.0000 0.0000 55.1293 7.9957 -23.7003 -39.6717 47.8742 -18.1954 0.0000 -0.0000 -40.2194 -36.1729 29.5785 -19.8452 7.1250 -0.0000 -0.0000 -2.9600 5.0900 -3.2151
0.00 0.00 0.00 -172.8080 -38.5487 198.0000 0.0000 0.0000 0.0000 -11.5328 11.0881 -70.3681 18.5368 19.9486 85.7183 2.8718 -7.0996 -30.7191 4.1467 -12.3532 -36.9930 0.0000 0.0000 0.0000 -2.1655 -16.4138 -12.8761 -6.4473 -14.8482 46.7516 -0.0148 -3.1665 2.9265 -6.7528 15.1202 -47.9331 -4.5662 3.5005 30.7295 2.9851 1.2053 11.5208 5.6329 -0.4504 -3.9833 -12.0765 3.0814 -12.0712 15.7988 5.1484 -25.5959 7.5123 1.2414 -6.4682 -0.0000 -0.0000 0.0000 -23.3135 -26.4516 -21.1725 54.6848 -54.7187 -29.9585 -0.0000 0.0000 -48.7726 25.6727 19.0324 8.9087 -7.1250 0.0000 -0.0000 -2.5870 50.9059 -0.3767 -0.0000 -0.0000 0.0000 57.3476 5.5851 -26.2695 -38.3072 47.0344 -17.1901 0.0000 -0.0000 -39.8107 -35.9370 28.5045 -19.0817 7.1250 -0.0000 -0.0000 -3.0666 3.8274 -3.2690
